<svg width="34" height="30" viewBox="0 0 34 30" fill="none" xmlns="http://www.w3.org/2000/svg">
<path id="icon-telegram" d="M30.9522 0.0178689C30.3923 -0.0407285 29.7933 0.043912 29.1878 0.28481C28.4391 0.577796 16.6871 5.52599 5.72948 10.1356L2.10949 11.6591C0.709674 12.2256 0 13.1501 0 14.4002C0 15.2661 0.371114 16.4511 2.12902 17.1477L8.23613 19.5958C8.77002 21.1779 9.99404 24.863 10.3066 25.8396C10.4889 26.4191 10.9511 27.884 12.1166 28.2226C12.3575 28.3072 12.6114 28.3463 12.8653 28.3463C13.601 28.3463 14.1349 28.0012 14.3953 27.8059L18.2758 24.5179L22.9961 28.8801C23.1784 29.0624 24.142 30 25.4311 30C27.0458 30 28.2633 28.6588 28.5172 27.3631C28.6604 26.6469 33.205 3.80714 33.205 3.81365C33.6151 1.98412 32.8794 1.03355 32.4106 0.623371C32.007 0.2783 31.5057 0.0764655 30.9522 0.0178689ZM29.8454 3.61833C29.2139 6.76954 25.7892 23.9645 25.2748 26.4386L18.3799 20.0646L13.6987 24.0296L14.9943 18.9577C14.9943 18.9577 23.9336 9.90774 24.474 9.38688C24.9037 8.96368 24.9949 8.81393 24.9949 8.67069C24.9949 8.47537 24.8972 8.33213 24.6628 8.33213C24.4545 8.33213 24.1745 8.53397 24.0248 8.62512C22.1171 9.81008 13.9982 14.4392 10.0071 16.7115L4.21247 14.3937L7.02513 13.2087C14.1935 10.1942 26.9546 4.82282 29.8454 3.61833Z" fill="#9587FF"/>
</svg>
