<svg width="33" height="40" viewBox="0 0 33 40" fill="none" xmlns="http://www.w3.org/2000/svg">
<g clip-path="url(#clip0_6969_46)">
<path fill-rule="evenodd" clip-rule="evenodd" d="M19.8811 13.9944C21.0829 13.3951 22.612 12.513 24.143 11.3045C24.4657 11.9748 24.5011 12.5598 24.3348 13.0321C24.2169 13.365 23.9948 13.6545 23.7028 13.8849C23.3866 14.1338 22.9916 14.3151 22.555 14.413C21.7266 14.5996 20.7594 14.4907 19.8811 13.9944ZM20.0894 20.1342L21.6803 21.0531C18.4321 22.8736 17.5491 26.254 16.5002 29.5465C15.4514 26.254 14.5682 22.8736 11.3202 21.0531L12.911 20.1342C13.0649 20.076 13.1965 19.9707 13.2868 19.8332C13.3771 19.6957 13.4216 19.5331 13.4139 19.3688C13.2681 16.2852 14.1007 14.9216 15.2238 14.0655C15.6266 13.7588 16.0663 13.6048 16.5002 13.6048C16.934 13.6048 17.3738 13.7588 17.7767 14.0655C18.8997 14.9216 19.7323 16.2852 19.5866 19.3688C19.5789 19.5331 19.6234 19.6957 19.7137 19.8332C19.804 19.9707 19.9356 20.076 20.0894 20.1342ZM16.5002 0C18.339 0.049369 20.1824 0.406345 21.7823 1.10079C22.8901 1.5823 23.9239 2.21833 24.8599 2.9789C25.2826 3.32226 25.6307 3.65396 26.0141 4.03582C27.0483 4.07157 28.5596 2.92273 29.2612 1.84774C28.0537 5.80643 22.5435 10.4813 18.7287 12.2701C18.7272 12.2695 18.7261 12.2685 18.7249 12.2677C18.0403 11.745 17.2703 11.4836 16.5002 11.4836C15.73 11.4836 14.9602 11.745 14.2756 12.2677C14.2744 12.2684 14.2733 12.2696 14.2718 12.2701C10.4569 10.4813 4.94677 5.80643 3.73926 1.84774C4.44077 2.92273 5.95209 4.07157 6.98622 4.03582C7.36978 3.6541 7.71785 3.32226 8.14044 2.9789C9.07648 2.21833 10.1102 1.5823 11.2181 1.10079C12.8181 0.406345 14.6615 0.049369 16.5002 0ZM13.1192 13.9944C11.9176 13.3951 10.3884 12.513 8.85753 11.3045C8.53473 11.9748 8.49938 12.5598 8.66556 13.0321C8.78354 13.365 9.00564 13.6545 9.29753 13.8849C9.61391 14.1338 10.0089 14.3151 10.4455 14.413C11.2739 14.5996 12.2409 14.4907 13.1192 13.9944Z" fill="#9587FF"/>
<path fill-rule="evenodd" clip-rule="evenodd" d="M25.8195 9.82342C26.6623 8.97288 27.4049 8.03147 28.0021 7.19141L28.3054 7.76223C29.2817 9.71564 29.789 11.6612 29.789 13.8507L29.787 17.3252L29.8053 19.1263C29.876 23.548 30.8327 28.0217 33 32.1158L28.4655 28.4594L25.257 33.6659L21.8863 30.4928L16.5 39.2337L11.1137 30.4929L7.74308 33.666L4.53462 28.4595L0 32.116C2.16726 28.0219 3.124 23.5481 3.19485 19.1264L3.21318 17.3253L3.21108 13.8509C3.21108 11.6612 3.71826 9.71564 4.69491 7.76236L4.99806 7.19154C5.5952 8.0316 6.3377 8.97288 7.18064 9.82355L6.91743 10.3703C6.40606 11.4322 6.23674 12.6195 6.6351 13.7487C6.89189 14.476 7.36057 15.0998 7.96479 15.5759C8.55145 16.0383 9.24576 16.35 9.97268 16.5136C10.4462 16.6202 10.9286 16.6641 11.4079 16.6492C11.2961 17.2831 11.2472 17.9406 11.2441 18.6106L6.96667 21.0811L10.2675 22.9314C10.5313 23.0793 10.7824 23.2487 11.0183 23.438C13.7397 25.8813 15.3758 33.1095 16.5001 36.6401C17.6246 33.1095 19.2606 25.8813 21.9821 23.438C22.218 23.2487 22.4691 23.0792 22.7329 22.9314L26.0337 21.0811L21.7562 18.6106C21.753 17.9406 21.7042 17.2831 21.5923 16.6492C22.0716 16.6641 22.5541 16.6202 23.0276 16.5136C23.7545 16.35 24.4489 16.0383 25.0355 15.5759C25.6396 15.0998 26.1084 14.476 26.365 13.7487C26.7635 12.6195 26.5941 11.4323 26.0828 10.3703L25.8196 9.82355L25.8195 9.82342Z" fill="#9587FF"/>
</g>
<defs>
<clipPath id="clip0_6969_46">
<rect width="33" height="39.2857" fill="white"/>
</clipPath>
</defs>
</svg>
